<svg width="1080" height="1080" viewBox="0 0 1080 1080" fill="none" xmlns="http://www.w3.org/2000/svg">
<path d="M404.927 182.351C446.258 177.387 504.507 181.859 547.975 181.648C657.568 181.114 738.697 198.748 786.201 306.31C831.47 408.837 896.103 584.868 873.251 694.891C836.167 873.453 640.594 914.247 483.961 896.037C347.817 880.203 211.041 737.823 201.858 600.913C195.586 507.442 224.696 462.386 256.689 381.332C285.631 307.969 309.777 193.784 404.927 182.365V182.351ZM586.311 208.929C496.87 217.83 436.723 305.269 394.802 375.693C355.046 442.46 283.254 558.319 277.179 634.03C264.93 786.661 401.425 858.378 537.104 849.702C758.582 835.541 797.691 546.042 749.806 375.875C727.432 296.382 685.047 199.099 586.325 208.929H586.311Z" fill="#E9E4DC"/>
</svg>
