<?xml version="1.0" encoding="UTF-8"?><svg id="Layer_18" xmlns="http://www.w3.org/2000/svg" width="1192" height="395" viewBox="0 0 1192 395"><defs><style>.cls-1{fill:#e9e4dc;}</style></defs><path class="cls-1" d="M531.6,64.25v163.79l119.69-163.79,2.97,2.59-66.34,90.42,98.58,166.38h-34.46l-83.01-140.45-37.43,51.51v88.94h-30.75V64.25h30.75Z"/><path class="cls-1" d="M713.18,323.65h-4.44l110.8-259.4,4.08-1.85,93.38,261.25h-31.5l-28.91-81.53h-108.2l-35.21,81.53ZM808.04,104.27l-58.18,134.15h105.62l-47.44-134.15Z"/><path class="cls-1" d="M950.35,67.21c28.65-1.98,53.97-2.97,75.97-2.97,61.02,0,91.53,20.38,91.53,61.14,0,17.3-4.2,32.74-12.6,46.32-8.4,13.59-22.85,22.61-43.36,27.05l74.12,124.88h-34.46l-72.63-122.66h-47.81v122.66h-30.75V67.21ZM1026.31,67.95c-14.33,0-29.4.87-45.21,2.59v126.74h54.85c34.83-1.48,52.25-25.2,52.25-71.15,0-18.77-5.19-33.17-15.56-43.17-10.37-10.01-25.82-15.01-46.32-15.01Z"/><polygon class="cls-1" points="276.86 68.62 322.6 68.62 322.6 173.65 274.68 173.65 274.68 178.1 322.6 178.1 322.6 323.65 355.26 323.65 355.26 68.62 411.88 68.62 411.88 323.65 444.55 323.65 444.55 63.95 276.86 63.95 276.86 68.62"/><path class="cls-1" d="M217.58,176.11c97.16-40.85,46.06-137.44-50.43-117.7-22.41,4.58-55.16,26.73-58.2,51.47h32.57c15.79-67.82,111.93-53.03,92.36,23.95-4.54,17.89-29.99,34.05-44.08,36.27-8.12,1.28-28.36,5.3-28.36,5.3v8.69c85.39-18.59,125.41,94.88,46.06,134.03-61.24,30.21-140.98-5.75-130.75-77.57h-19.57c-8.75,45.89,32.73,83.33,73.53,94.07,64.3,16.92,161-12.44,151.97-93.34-3.8-34.12-35.83-54.53-65.13-65.13l.02-.04Z"/></svg>